<?xml version="1.0" encoding="UTF-8" standalone="no"?>
<svg
   xmlns:osb="http://www.openswatchbook.org/uri/2009/osb"
   xmlns:dc="http://purl.org/dc/elements/1.1/"
   xmlns:cc="http://creativecommons.org/ns#"
   xmlns:rdf="http://www.w3.org/1999/02/22-rdf-syntax-ns#"
   xmlns:svg="http://www.w3.org/2000/svg"
   xmlns="http://www.w3.org/2000/svg"
   xmlns:xlink="http://www.w3.org/1999/xlink"
   width="100px"
   height="100px"
   viewBox="0 0 100 100"
   version="1.1"
   id="SVGRoot">
  <defs
     id="defs833">
    <linearGradient
       id="linearGradient4008">
      <stop
         style="stop-color:#ddeee5;stop-opacity:1;"
         offset="0"
         id="stop4004" />
      <stop
         style="stop-color:#ddeee5;stop-opacity:0;"
         offset="1"
         id="stop4006" />
    </linearGradient>
    <linearGradient
       id="linearGradient3954"
       osb:paint="solid">
      <stop
         style="stop-color:#000000;stop-opacity:1;"
         offset="0"
         id="stop3952" />
    </linearGradient>
    <linearGradient
       id="linearGradient3948"
       osb:paint="solid">
      <stop
         style="stop-color:#000000;stop-opacity:1;"
         offset="0"
         id="stop3946" />
    </linearGradient>
    <linearGradient
       xlink:href="#linearGradient4008"
       id="linearGradient4010"
       x1="1.2322589"
       y1="48.826323"
       x2="99.158555"
       y2="48.826323"
       gradientUnits="userSpaceOnUse" />
    <linearGradient
       xlink:href="#linearGradient4008"
       id="linearGradient4018"
       x1="1.2322589"
       y1="48.826324"
       x2="99.158554"
       y2="48.826324"
       gradientUnits="userSpaceOnUse" />
  </defs>
  <metadata
     id="metadata836">
    <rdf:RDF>
      <cc:Work
         rdf:about="">
        <dc:format>image/svg+xml</dc:format>
        <dc:type
           rdf:resource="http://purl.org/dc/dcmitype/StillImage" />
        <dc:title></dc:title>
      </cc:Work>
    </rdf:RDF>
  </metadata>
  <g
     id="layer1">
    <path
       style="fill:url(#linearGradient4010);fill-opacity:1;fill-rule:nonzero;stroke:url(#linearGradient4018);stroke-width:0.13606299;stroke-linecap:butt;stroke-linejoin:miter;stroke-opacity:1;stroke-miterlimit:4;stroke-dasharray:none"
       d="m 9.5445424,55.396753 c 0,0 -3.6695743,-2.69526 -7.2557379,1.796777 -2.60112089,3.592561 1.8339991,11.567929 4.2424604,11.422765 l 86.7046231,0.194404 c 2.838011,-0.634485 5.201764,-1.261507 5.662847,-7.600621 -1.38116,-4.980245 -3.909203,-5.931976 -7.995709,-6.202134 -0.256097,-3.160399 -0.02305,-6.442528 -2.891096,-9.488191 -3.415695,-3.12169 -8.718283,-2.199895 -10.814452,-1.301287 -1.656524,-6.073355 -3.498711,-12.0648 -13.219539,-14.580374 -10.33877,-2.57434 -15.79299,1.394363 -19.628627,7.490867 -2.523684,-1.814249 -6.132482,-6.61186 -14.313868,-2.361034 -6.377974,3.689493 -4.22427,7.722188 -5.230241,11.39459 -3.328767,-0.864479 -6.462976,-3.233521 -11.664168,-0.1191 -3.3679052,2.359695 -2.597623,6.562911 -3.5964926,9.353338 z"
       id="path1982" />
  </g>
</svg>
